<svg xmlns="http://www.w3.org/2000/svg" viewBox="0 0 1104.42 571.07">
  <defs>
    <style>
      .cls-1 {
        fill: #fff;
      }

      .cls-2 {
        fill: #228cff;
      }
    </style>
  </defs>
  <title>Asset 4</title>
  <g id="Layer_2" data-name="Layer 2">
    <g id="Bimaper_Page" data-name="Bimaper Page">
      <g>
        <g>
          <path class="cls-1" d="M78.92,523.68v7.22H76.51v-7.56l-15.29-1.9v7.74H58.81v-7.91l-17-2.23v-2.41l17,2.24V505.46l-17-2.23v-2.41l17,2.23v-7h2.41v7.22l15.29,1.89v-7.39h2.41v7.73l18.73,2.23v2.41l-18.73-2.23v13.4l18.73,2.24v2.4Zm-2.41-16.16-15.29-1.89V519l15.29,1.89Z"/>
          <path class="cls-1" d="M40.93,485.18V470.4c0-11.35,4.47-18.39,13.75-18.39,6,0,10.66,3.43,12.38,10.14h.34c1.21-8.43,5.85-13.75,13.75-13.75,10.83,0,16.5,8.07,16.5,21v15.81ZM66.2,472.12c0-12.38-4-17.36-11.86-17.36-7.73,0-11,5.84-11,16.84v10.83H66.2Zm29.05-1.72c0-11.86-4.3-19.25-13.93-19.25-8.59,0-12.71,7-12.71,19.25v12H95.25Z"/>
          <path class="cls-1" d="M97.65,405.08l-26.81,16v12.72H97.65v2.75H40.93V420.89c0-11.17,4.13-18.21,14.61-18.21,9,0,14.27,5.84,15.13,15.29l27-16.15ZM68.43,421.93c0-10.49-4.12-16.33-12.89-16.33-8.93,0-12.2,5.84-12.2,16.33v11.86H68.43Z"/>
          <path class="cls-1" d="M77.37,365.38v23.11l20.28,7.14v2.75L40.93,378.1v-2.41l56.72-20.28v2.92Zm-2.4.86-11.35,3.95c-6.87,2.41-12.72,4.47-19.76,6.53v.34c7,2.07,12.89,4.13,19.76,6.54l11.35,4Z"/>
          <path class="cls-1" d="M40.93,346.64v-2.92l41.6-25.09,11.17-6.54v-.34c-5.5.17-10.66.34-16,.34H40.93v-2.57H97.65v2.92L56.06,337.53l-11.17,6.53v.35c5.33-.17,10.14-.35,15.47-.35H97.65v2.58Z"/>
          <path class="cls-1" d="M40.93,293V280.3c0-17.54,11.35-25.44,28.19-25.44s28.53,7.9,28.53,25.44V293Zm54.32-12.37c0-16.16-11.18-22.86-26.13-22.86s-25.78,6.7-25.78,22.86v9.62H95.25Z"/>
        </g>
        <g>
          <path class="cls-2" d="M88.08,96.9V96C112.7,89.66,125,72.3,125,50.52,125,15.79,98.18,0,56.5,0H.31V208.07H.42V96.9ZM14.83,12H52.4c38.2,0,58.09,11.37,58.09,38.21,0,27.46-17,41.36-60,41.36H14.83Z"/>
          <path class="cls-1" d="M88.08,96.9v.35c30.62,4.42,49.88,21.47,49.88,50.2,0,40.09-30.31,60.62-77.35,60.62H.42V234.9h138V96.9Z"/>
          <path class="cls-1" d="M123.44,147.45c0-29.69-24.31-44.21-66.62-44.21h-42v92.83h42C98.18,196.07,123.44,180.91,123.44,147.45Z"/>
        </g>
        <g>
          <rect class="cls-2" x="180.59" width="14.52" height="103.51"/>
          <path class="cls-2" d="M385.81,60.71l16.1-45.61h1.27c-.95,17.3-1.9,39-1.9,56v32.42h14.21V0H395L358.19,103.51h12.14Z"/>
          <path class="cls-2" d="M267.42,71.09c0-17-.95-38.69-1.59-56h1.27l16.42,45.61L299,103.51h12.41L274.36,0H254.15V103.51h13.27Z"/>
          <path class="cls-2" d="M503.26,85.24c8.53-24.53,15.79-46.24,23-71.71h1.27c7.26,25.47,14.84,47.18,23,71.71l6.26,18.27H571.1L534.52,0H520L483.27,103.51H497Z"/>
          <polygon class="cls-1" points="607.77 207.28 607.42 206.3 607.42 207.28 607.77 207.28"/>
          <polygon class="cls-1" points="607.42 103.51 571.1 103.51 607.42 206.3 607.42 103.51"/>
          <polygon class="cls-1" points="334.35 167.65 335.61 167.65 351.71 121.73 358.19 103.51 311.41 103.51 317.93 121.73 334.35 167.65"/>
          <polygon class="cls-1" points="490 123.94 563.88 123.94 556.88 103.51 497 103.51 490 123.94"/>
          <polygon class="cls-1" points="592.3 207.28 567.99 136.2 485.59 136.2 461.27 207.28 446.44 207.28 483.27 103.51 415.49 103.51 415.49 207.28 401.28 207.28 401.28 103.51 370.33 103.51 340.98 184.63 328.35 184.63 299 103.51 267.42 103.51 267.42 207.28 254.15 207.28 254.15 103.51 195.11 103.51 195.11 207.28 180.59 207.28 180.59 103.51 180.42 103.51 180.42 528.9 607.42 528.9 607.42 207.28 592.3 207.28"/>
        </g>
        <g>
          <path class="cls-2" d="M653.24,12.31h38.52c42.3,0,62.83,10.74,62.83,45.79,0,26-11.74,40.39-36.16,45.8h31.05c12.89-10.07,19.94-25.29,19.94-45.8C769.42,15.16,742,0,695.55,0H638.72V103.9h14.52Z"/>
          <polygon class="cls-2" points="827.21 103.88 910.56 103.88 910.56 91.25 827.21 91.25 827.21 12.63 926.35 12.63 926.35 0 812.68 0 812.68 103.9 827.21 103.9 827.21 103.88"/>
          <path class="cls-2" d="M1100.63,54.94c0-39.78-27.15-54.94-68.51-54.94H972.76V103.9h99.71C1090.15,94.79,1100.63,78.44,1100.63,54.94ZM987.28,12.31h41c36.94,0,57.14,11.37,57.14,42.63,0,30.62-20.2,45.46-57.14,45.46h-41Z"/>
          <path class="cls-1" d="M653.24,106.41h38.52a124.49,124.49,0,0,0,26.67-2.51H653.24Z"/>
          <path class="cls-1" d="M1071.54,103.9a77.28,77.28,0,0,1-25.14,7.55l57,96.62h-16.7l-56.08-95.67h-44.1v95.67H972.05V103.9H826.8v91.53H928.88v12.64H812.31V103.9H749.24c-12.67,9.91-31,14.82-53.82,14.82H653.21v89.35h-14.5V103.9h-.29v467h466v-467Z"/>
        </g>
        <g>
          <path class="cls-2" d="M210.71,484.71h-8.13V482h8.52l2.13-17.24h-8.72v-2.71h8.91l2.52-19.17h2.71l-2.52,19.17h15.11l2.51-19.17h2.71L234,462.05h7.94v2.71h-8.14L231.62,482H240v2.71h-8.71l-2.52,21.11H226l2.52-21.11H213.42l-2.52,21.11h-2.71Zm18.2-2.71L231,464.76h-15.1L213.81,482Z"/>
          <path class="cls-2" d="M254.08,441.92h3.1v63.9h-3.1Z"/>
          <path class="cls-2" d="M275.77,441.92h5l13.74,38.72,5.23,14.53h.39l5-14.53L319,441.92h5v63.9h-3.1V461.28c0-5,.19-11.43.39-16.65h-.39L316,458.57l-14.23,40.08H298l-14.33-40.08-5-13.94h-.39c.19,5.22.39,11.62.39,16.65v44.54h-2.91Z"/>
          <path class="cls-2" d="M371,483H345l-8,22.85h-3.1l22.85-63.9h2.71l22.85,63.9H379Zm-1-2.71-4.45-12.78c-2.71-7.75-5-14.33-7.36-22.27h-.39c-2.32,7.94-4.64,14.52-7.35,22.27L346,480.26Z"/>
          <path class="cls-2" d="M414.8,440.75a22.44,22.44,0,0,1,17,7.56l-1.93,2.13a19.27,19.27,0,0,0-15.11-6.78c-15.29,0-24.59,11.62-24.59,30s8.91,30.4,23.82,30.4c6.2,0,12-1.93,15.3-5.23v-21.1H413.45V475h19v24.78c-3.87,4.26-10.26,7.17-18.59,7.17-16.26,0-26.91-13.17-26.91-33.31S398,440.75,414.8,440.75Z"/>
          <path class="cls-2" d="M448.5,441.92h34.27v2.71H451.59v25.75h26.15v2.71H451.59v30h32.15v2.72H448.5Z"/>
        </g>
        <g>
          <g>
            <path class="cls-2" d="M665.52,390.71h-8.14V388h8.52L668,370.76h-8.71v-2.71h8.91l2.51-19.17h2.71l-2.51,19.17H686l2.52-19.17h2.71l-2.52,19.17h7.94v2.71h-8.13L686.43,388h8.32v2.71H686l-2.52,21.11h-2.71l2.52-21.11h-15.1l-2.52,21.11H663Zm18.2-2.71,2.13-17.24H670.74L668.61,388Z"/>
            <path class="cls-2" d="M708.89,347.92h16.65c14.33,0,22.46,4.64,22.46,17.42,0,12.2-8.13,18.2-22.46,18.2H712v28.28h-3.1Zm15.49,32.91c13.75,0,20.33-4.45,20.33-15.49,0-11.23-6.58-14.71-20.33-14.71H712v30.2Z"/>
            <path class="cls-2" d="M761.56,347.92h34.27v2.71H764.66v25.75H790.8v2.71H764.66v30H796.8v2.72H761.56Z"/>
            <path class="cls-2" d="M845.6,411.82l-18-30.21H813.26v30.21h-3.1v-63.9h17.62c12.59,0,20.53,4.64,20.53,16.46,0,10.16-6.59,16.07-17.24,17l18.21,30.4Zm-19-32.92c11.81,0,18.4-4.65,18.4-14.52,0-10.07-6.59-13.75-18.4-13.75H813.26V378.9Z"/>
            <path class="cls-2" d="M862.83,347.92h34.08v2.71h-31v26.91h26.14v2.71H865.93v31.57h-3.1Z"/>
            <path class="cls-2" d="M902.33,379.67c0-20.14,10.85-32.92,25.95-32.92s26,12.78,26,32.92S943.38,413,928.28,413,902.33,399.81,902.33,379.67Zm48.61,0c0-18.39-9.11-30-22.66-30s-22.65,11.62-22.65,30,9.1,30.4,22.65,30.4S950.94,398.07,950.94,379.67Z"/>
            <path class="cls-2" d="M1004,411.82l-18-30.21H971.66v30.21h-3.1v-63.9h17.62c12.58,0,20.52,4.64,20.52,16.46,0,10.16-6.58,16.07-17.23,17l18.2,30.4ZM985,378.9c11.81,0,18.39-4.65,18.39-14.52,0-10.07-6.58-13.75-18.39-13.75H971.66V378.9Z"/>
            <path class="cls-2" d="M1021.23,347.92h5L1040,386.64l5.23,14.53h.39l5-14.53,13.75-38.72h5v63.9h-3.1V367.28c0-5,.2-11.43.39-16.65h-.39l-4.93,13.94-14.24,40.08h-3.67l-14.33-40.08-5-13.94h-.39c.2,5.22.39,11.62.39,16.65v44.54h-2.9Z"/>
            <path class="cls-2" d="M745.66,471.15h-26l-8,22.85h-3.1l22.85-63.9H734L756.89,494h-3.3Zm-1-2.71-4.46-12.78c-2.71-7.75-5-14.33-7.35-22.27h-.39c-2.32,7.94-4.65,14.52-7.36,22.27l-4.55,12.78Z"/>
            <path class="cls-2" d="M766.76,430.1h3.29L798.33,477l7.35,12.59h.39c-.19-6.2-.39-12-.39-18V430.1h2.91V494H805.3L777,447.14l-7.36-12.59h-.39c.19,6,.39,11.43.39,17.43v42h-2.91Z"/>
            <path class="cls-2" d="M849.83,428.94a21.37,21.37,0,0,1,16.27,7.55l-1.94,2.13a18.48,18.48,0,0,0-14.33-6.78c-14.71,0-23.62,11.62-23.62,30s8.91,30.4,23.24,30.4c6.77,0,11.81-2.71,16.65-8.14l1.94,1.94c-4.85,5.61-10.46,9.1-18.79,9.1-15.68,0-26.33-13.17-26.33-33.3S833.57,428.94,849.83,428.94Z"/>
            <path class="cls-2" d="M880.81,430.1h34.28v2.71H883.91v25.75h26.14v2.71H883.91v30h32.15V494H880.81Z"/>
          </g>
          <rect class="cls-2" x="1079.46" y="375.9" width="7" height="3"/>
          <rect class="cls-2" x="666.46" y="460.9" width="34" height="3"/>
        </g>
        <rect class="cls-2" x="0.42" y="551.35" width="18.39" height="18.55"/>
        <rect class="cls-2" x="37.21" y="551.35" width="18.39" height="18.55"/>
        <rect class="cls-2" x="74" y="551.35" width="18.39" height="18.55"/>
        <rect class="cls-2" x="110.79" y="551.35" width="18.39" height="18.55"/>
        <rect class="cls-2" x="147.57" y="551.35" width="18.39" height="18.55"/>
        <rect class="cls-2" x="184.36" y="551.35" width="18.39" height="18.55"/>
        <rect class="cls-2" x="221.15" y="551.35" width="18.39" height="18.55"/>
        <rect class="cls-2" x="257.94" y="551.35" width="18.39" height="18.55"/>
        <rect class="cls-2" x="294.72" y="551.35" width="18.39" height="18.55"/>
        <rect class="cls-2" x="331.51" y="551.35" width="18.39" height="18.55"/>
        <rect class="cls-2" x="368.3" y="551.35" width="18.39" height="18.55"/>
        <rect class="cls-2" x="405.09" y="551.35" width="18.39" height="18.55"/>
        <rect class="cls-2" x="441.88" y="551.35" width="18.39" height="18.55"/>
        <rect class="cls-2" x="478.66" y="551.35" width="18.39" height="18.55"/>
        <rect class="cls-2" x="515.45" y="551.35" width="18.39" height="18.55"/>
        <rect class="cls-2" x="552.24" y="551.35" width="18.39" height="18.55"/>
        <rect class="cls-2" x="589.03" y="551.35" width="18.39" height="18.55"/>
        <g>
          <rect class="cls-2" x="180.42" y="244.35" width="18.57" height="18.72"/>
          <rect class="cls-2" x="217.55" y="244.35" width="18.57" height="18.72"/>
          <rect class="cls-2" x="254.68" y="244.35" width="18.57" height="18.72"/>
          <rect class="cls-2" x="291.81" y="244.35" width="18.57" height="18.72"/>
          <rect class="cls-2" x="328.94" y="244.35" width="18.57" height="18.72"/>
          <rect class="cls-2" x="366.07" y="244.35" width="18.57" height="18.72"/>
          <rect class="cls-2" x="403.2" y="244.35" width="18.57" height="18.72"/>
          <rect class="cls-2" x="440.33" y="244.35" width="18.57" height="18.72"/>
          <rect class="cls-2" x="477.47" y="244.35" width="18.57" height="18.72"/>
          <rect class="cls-2" x="514.6" y="244.35" width="18.57" height="18.72"/>
          <rect class="cls-2" x="551.73" y="244.35" width="18.57" height="18.72"/>
          <rect class="cls-2" x="588.86" y="244.35" width="18.57" height="18.72"/>
        </g>
        <g>
          <rect class="cls-2" x="198.99" y="225.35" width="18.57" height="18.72"/>
          <rect class="cls-2" x="236.12" y="225.35" width="18.57" height="18.72"/>
          <rect class="cls-2" x="273.25" y="225.35" width="18.57" height="18.72"/>
          <rect class="cls-2" x="310.38" y="225.35" width="18.57" height="18.72"/>
          <rect class="cls-2" x="347.51" y="225.35" width="18.57" height="18.72"/>
          <rect class="cls-2" x="384.64" y="225.35" width="18.57" height="18.72"/>
          <rect class="cls-2" x="421.77" y="225.35" width="18.57" height="18.72"/>
          <rect class="cls-2" x="458.9" y="225.35" width="18.57" height="18.72"/>
          <rect class="cls-2" x="496.03" y="225.35" width="18.57" height="18.72"/>
          <rect class="cls-2" x="533.16" y="225.35" width="18.57" height="18.72"/>
          <rect class="cls-2" x="570.29" y="225.35" width="18.57" height="18.72"/>
        </g>
        <rect class="cls-2" x="180.42" y="282.35" width="18.57" height="18.72"/>
        <rect class="cls-2" x="217.55" y="282.35" width="18.57" height="18.72"/>
        <rect class="cls-2" x="254.68" y="282.35" width="18.57" height="18.72"/>
        <rect class="cls-2" x="291.81" y="282.35" width="18.57" height="18.72"/>
        <rect class="cls-2" x="328.94" y="282.35" width="18.57" height="18.72"/>
        <rect class="cls-2" x="366.07" y="282.35" width="18.57" height="18.72"/>
        <rect class="cls-2" x="403.2" y="282.35" width="18.57" height="18.72"/>
        <rect class="cls-2" x="440.33" y="282.35" width="18.57" height="18.72"/>
        <rect class="cls-2" x="477.47" y="282.35" width="18.57" height="18.72"/>
        <rect class="cls-2" x="514.6" y="282.35" width="18.57" height="18.72"/>
        <rect class="cls-2" x="551.73" y="282.35" width="18.57" height="18.72"/>
        <rect class="cls-2" x="588.86" y="282.35" width="18.57" height="18.72"/>
        <g>
          <rect class="cls-2" x="198.99" y="263.35" width="18.57" height="18.72"/>
          <rect class="cls-2" x="236.12" y="263.35" width="18.57" height="18.72"/>
          <rect class="cls-2" x="273.25" y="263.35" width="18.57" height="18.72"/>
          <rect class="cls-2" x="310.38" y="263.35" width="18.57" height="18.72"/>
          <rect class="cls-2" x="347.51" y="263.35" width="18.57" height="18.72"/>
          <rect class="cls-2" x="384.64" y="263.35" width="18.57" height="18.72"/>
          <rect class="cls-2" x="421.77" y="263.35" width="18.57" height="18.72"/>
          <rect class="cls-2" x="458.9" y="263.35" width="18.57" height="18.72"/>
          <rect class="cls-2" x="496.03" y="263.35" width="18.57" height="18.72"/>
          <rect class="cls-2" x="533.16" y="263.35" width="18.57" height="18.72"/>
          <rect class="cls-2" x="570.29" y="263.35" width="18.57" height="18.72"/>
        </g>
        <rect class="cls-2" x="180.42" y="320.35" width="18.57" height="18.72"/>
        <rect class="cls-2" x="217.55" y="320.35" width="18.57" height="18.72"/>
        <rect class="cls-2" x="254.68" y="320.35" width="18.57" height="18.72"/>
        <rect class="cls-2" x="291.81" y="320.35" width="18.57" height="18.72"/>
        <rect class="cls-2" x="328.94" y="320.35" width="18.57" height="18.72"/>
        <rect class="cls-2" x="366.07" y="320.35" width="18.57" height="18.72"/>
        <rect class="cls-2" x="403.2" y="320.35" width="18.57" height="18.72"/>
        <rect class="cls-2" x="440.33" y="320.35" width="18.57" height="18.72"/>
        <rect class="cls-2" x="477.47" y="320.35" width="18.57" height="18.72"/>
        <rect class="cls-2" x="514.6" y="320.35" width="18.57" height="18.72"/>
        <rect class="cls-2" x="551.73" y="320.35" width="18.57" height="18.72"/>
        <rect class="cls-2" x="588.86" y="320.35" width="18.57" height="18.72"/>
        <g>
          <rect class="cls-2" x="198.99" y="301.35" width="18.57" height="18.72"/>
          <rect class="cls-2" x="236.12" y="301.35" width="18.57" height="18.72"/>
          <rect class="cls-2" x="273.25" y="301.35" width="18.57" height="18.72"/>
          <rect class="cls-2" x="310.38" y="301.35" width="18.57" height="18.72"/>
          <rect class="cls-2" x="347.51" y="301.35" width="18.57" height="18.72"/>
          <rect class="cls-2" x="384.64" y="301.35" width="18.57" height="18.72"/>
          <rect class="cls-2" x="421.77" y="301.35" width="18.57" height="18.72"/>
          <rect class="cls-2" x="458.9" y="301.35" width="18.57" height="18.72"/>
          <rect class="cls-2" x="496.03" y="301.35" width="18.57" height="18.72"/>
          <rect class="cls-2" x="533.16" y="301.35" width="18.57" height="18.72"/>
          <rect class="cls-2" x="570.29" y="301.35" width="18.57" height="18.72"/>
        </g>
        <g>
          <rect class="cls-2" x="638.42" y="244.35" width="18.57" height="18.72"/>
          <rect class="cls-2" x="675.55" y="244.35" width="18.57" height="18.72"/>
          <rect class="cls-2" x="712.68" y="244.35" width="18.57" height="18.72"/>
          <rect class="cls-2" x="749.81" y="244.35" width="18.57" height="18.72"/>
          <rect class="cls-2" x="786.94" y="244.35" width="18.57" height="18.72"/>
          <rect class="cls-2" x="824.07" y="244.35" width="18.57" height="18.72"/>
          <rect class="cls-2" x="861.2" y="244.35" width="18.57" height="18.72"/>
          <rect class="cls-2" x="898.33" y="244.35" width="18.57" height="18.72"/>
          <rect class="cls-2" x="935.47" y="244.35" width="18.57" height="18.72"/>
          <rect class="cls-2" x="972.6" y="244.35" width="18.57" height="18.72"/>
          <rect class="cls-2" x="1009.73" y="244.35" width="18.57" height="18.72"/>
          <rect class="cls-2" x="1046.86" y="244.35" width="18.57" height="18.72"/>
        </g>
        <g>
          <rect class="cls-2" x="638.42" y="282.35" width="18.57" height="18.72"/>
          <rect class="cls-2" x="675.55" y="282.35" width="18.57" height="18.72"/>
          <rect class="cls-2" x="712.68" y="282.35" width="18.57" height="18.72"/>
          <rect class="cls-2" x="749.81" y="282.35" width="18.57" height="18.72"/>
          <rect class="cls-2" x="786.94" y="282.35" width="18.57" height="18.72"/>
          <rect class="cls-2" x="824.07" y="282.35" width="18.57" height="18.72"/>
          <rect class="cls-2" x="861.2" y="282.35" width="18.57" height="18.72"/>
          <rect class="cls-2" x="898.33" y="282.35" width="18.57" height="18.72"/>
          <rect class="cls-2" x="935.47" y="282.35" width="18.57" height="18.72"/>
          <rect class="cls-2" x="972.6" y="282.35" width="18.57" height="18.72"/>
          <rect class="cls-2" x="1009.73" y="282.35" width="18.57" height="18.72"/>
          <rect class="cls-2" x="1046.86" y="282.35" width="18.57" height="18.72"/>
        </g>
        <g>
          <rect class="cls-2" x="656.99" y="225.35" width="18.57" height="18.72"/>
          <rect class="cls-2" x="694.12" y="225.35" width="18.57" height="18.72"/>
          <rect class="cls-2" x="731.25" y="225.35" width="18.57" height="18.72"/>
          <rect class="cls-2" x="768.38" y="225.35" width="18.57" height="18.72"/>
          <rect class="cls-2" x="805.51" y="225.35" width="18.57" height="18.72"/>
          <rect class="cls-2" x="842.64" y="225.35" width="18.57" height="18.72"/>
          <rect class="cls-2" x="879.77" y="225.35" width="18.57" height="18.72"/>
          <rect class="cls-2" x="916.9" y="225.35" width="18.57" height="18.72"/>
          <rect class="cls-2" x="954.03" y="225.35" width="18.57" height="18.72"/>
          <rect class="cls-2" x="991.16" y="225.35" width="18.57" height="18.72"/>
          <rect class="cls-2" x="1028.29" y="225.35" width="18.57" height="18.72"/>
        </g>
        <g>
          <rect class="cls-2" x="656.99" y="263.35" width="18.57" height="18.72"/>
          <rect class="cls-2" x="694.12" y="263.35" width="18.57" height="18.72"/>
          <rect class="cls-2" x="731.25" y="263.35" width="18.57" height="18.72"/>
          <rect class="cls-2" x="768.38" y="263.35" width="18.57" height="18.72"/>
          <rect class="cls-2" x="805.51" y="263.35" width="18.57" height="18.72"/>
          <rect class="cls-2" x="842.64" y="263.35" width="18.57" height="18.72"/>
          <rect class="cls-2" x="879.77" y="263.35" width="18.57" height="18.72"/>
          <rect class="cls-2" x="916.9" y="263.35" width="18.57" height="18.72"/>
          <rect class="cls-2" x="954.03" y="263.35" width="18.57" height="18.72"/>
          <rect class="cls-2" x="991.16" y="263.35" width="18.57" height="18.72"/>
          <rect class="cls-2" x="1028.29" y="263.35" width="18.57" height="18.72"/>
        </g>
        <g>
          <rect class="cls-2" x="656.99" y="301.35" width="18.57" height="18.72"/>
          <rect class="cls-2" x="694.12" y="301.35" width="18.57" height="18.72"/>
          <rect class="cls-2" x="731.25" y="301.35" width="18.57" height="18.72"/>
          <rect class="cls-2" x="768.38" y="301.35" width="18.57" height="18.72"/>
          <rect class="cls-2" x="805.51" y="301.35" width="18.57" height="18.72"/>
          <rect class="cls-2" x="842.64" y="301.35" width="18.57" height="18.72"/>
          <rect class="cls-2" x="879.77" y="301.35" width="18.57" height="18.72"/>
          <rect class="cls-2" x="916.9" y="301.35" width="18.57" height="18.72"/>
          <rect class="cls-2" x="954.03" y="301.35" width="18.57" height="18.72"/>
          <rect class="cls-2" x="991.16" y="301.35" width="18.57" height="18.72"/>
          <rect class="cls-2" x="1028.29" y="301.35" width="18.57" height="18.72"/>
        </g>
        <rect class="cls-2" x="180.42" y="358.35" width="18.57" height="18.72"/>
        <rect class="cls-2" x="217.55" y="358.35" width="18.57" height="18.72"/>
        <rect class="cls-2" x="254.68" y="358.35" width="18.57" height="18.72"/>
        <rect class="cls-2" x="291.81" y="358.35" width="18.57" height="18.72"/>
        <rect class="cls-2" x="328.94" y="358.35" width="18.57" height="18.72"/>
        <rect class="cls-2" x="366.07" y="358.35" width="18.57" height="18.72"/>
        <rect class="cls-2" x="403.2" y="358.35" width="18.57" height="18.72"/>
        <rect class="cls-2" x="440.33" y="358.35" width="18.57" height="18.72"/>
        <rect class="cls-2" x="477.47" y="358.35" width="18.57" height="18.72"/>
        <rect class="cls-2" x="514.6" y="358.35" width="18.57" height="18.72"/>
        <rect class="cls-2" x="551.73" y="358.35" width="18.57" height="18.72"/>
        <rect class="cls-2" x="588.86" y="358.35" width="18.57" height="18.72"/>
        <rect class="cls-2" x="198.99" y="339.35" width="18.57" height="18.72"/>
        <rect class="cls-2" x="236.12" y="339.35" width="18.57" height="18.72"/>
        <rect class="cls-2" x="273.25" y="339.35" width="18.57" height="18.72"/>
        <rect class="cls-2" x="310.38" y="339.35" width="18.57" height="18.72"/>
        <rect class="cls-2" x="347.51" y="339.35" width="18.57" height="18.72"/>
        <rect class="cls-2" x="384.64" y="339.35" width="18.57" height="18.72"/>
        <rect class="cls-2" x="421.77" y="339.35" width="18.57" height="18.72"/>
        <rect class="cls-2" x="458.9" y="339.35" width="18.57" height="18.72"/>
        <rect class="cls-2" x="496.03" y="339.35" width="18.57" height="18.72"/>
        <rect class="cls-2" x="533.16" y="339.35" width="18.57" height="18.72"/>
        <rect class="cls-2" x="570.29" y="339.35" width="18.57" height="18.72"/>
        <rect class="cls-2" x="180.42" y="396.35" width="18.57" height="18.72"/>
        <rect class="cls-2" x="217.55" y="396.35" width="18.57" height="18.72"/>
        <rect class="cls-2" x="254.68" y="396.35" width="18.57" height="18.72"/>
        <rect class="cls-2" x="291.81" y="396.35" width="18.57" height="18.72"/>
        <rect class="cls-2" x="328.94" y="396.35" width="18.57" height="18.72"/>
        <rect class="cls-2" x="366.07" y="396.35" width="18.57" height="18.72"/>
        <rect class="cls-2" x="403.2" y="396.35" width="18.57" height="18.72"/>
        <rect class="cls-2" x="440.33" y="396.35" width="18.57" height="18.72"/>
        <rect class="cls-2" x="477.47" y="396.35" width="18.57" height="18.72"/>
        <rect class="cls-2" x="514.6" y="396.35" width="18.57" height="18.72"/>
        <rect class="cls-2" x="551.73" y="396.35" width="18.57" height="18.72"/>
        <rect class="cls-2" x="588.86" y="396.35" width="18.57" height="18.72"/>
        <rect class="cls-2" x="198.99" y="377.35" width="18.57" height="18.72"/>
        <rect class="cls-2" x="236.12" y="377.35" width="18.57" height="18.72"/>
        <rect class="cls-2" x="273.25" y="377.35" width="18.57" height="18.72"/>
        <rect class="cls-2" x="310.38" y="377.35" width="18.57" height="18.72"/>
        <rect class="cls-2" x="347.51" y="377.35" width="18.57" height="18.72"/>
        <rect class="cls-2" x="384.64" y="377.35" width="18.57" height="18.72"/>
        <rect class="cls-2" x="421.77" y="377.35" width="18.57" height="18.72"/>
        <rect class="cls-2" x="458.9" y="377.35" width="18.57" height="18.72"/>
        <rect class="cls-2" x="496.03" y="377.35" width="18.57" height="18.72"/>
        <rect class="cls-2" x="533.16" y="377.35" width="18.57" height="18.72"/>
        <rect class="cls-2" x="570.29" y="377.35" width="18.57" height="18.72"/>
        <rect class="cls-2" x="514.6" y="434.35" width="18.57" height="18.72"/>
        <rect class="cls-2" x="551.73" y="434.35" width="18.57" height="18.72"/>
        <rect class="cls-2" x="588.86" y="434.35" width="18.57" height="18.72"/>
        <rect class="cls-2" x="533.16" y="415.35" width="18.57" height="18.72"/>
        <rect class="cls-2" x="570.29" y="415.35" width="18.57" height="18.72"/>
        <rect class="cls-2" x="514.6" y="472.35" width="18.57" height="18.72"/>
        <rect class="cls-2" x="551.73" y="472.35" width="18.57" height="18.72"/>
        <rect class="cls-2" x="588.86" y="472.35" width="18.57" height="18.72"/>
        <rect class="cls-2" x="533.16" y="453.35" width="18.57" height="18.72"/>
        <rect class="cls-2" x="570.29" y="453.35" width="18.57" height="18.72"/>
        <rect class="cls-2" x="514.6" y="510.35" width="18.57" height="18.72"/>
        <rect class="cls-2" x="551.73" y="510.35" width="18.57" height="18.72"/>
        <rect class="cls-2" x="588.86" y="510.35" width="18.57" height="18.72"/>
        <rect class="cls-2" x="533.16" y="491.35" width="18.57" height="18.72"/>
        <rect class="cls-2" x="570.29" y="491.35" width="18.57" height="18.72"/>
        <rect class="cls-2" x="1065.73" y="225.35" width="18.57" height="18.72"/>
        <rect class="cls-2" x="1065.73" y="263.35" width="18.57" height="18.72"/>
        <rect class="cls-2" x="1084.29" y="244.35" width="18.57" height="18.72"/>
        <g>
          <rect class="cls-2" x="638.42" y="533.35" width="18.57" height="18.72"/>
          <rect class="cls-2" x="675.55" y="533.35" width="18.57" height="18.72"/>
          <rect class="cls-2" x="712.68" y="533.35" width="18.57" height="18.72"/>
          <rect class="cls-2" x="749.81" y="533.35" width="18.57" height="18.72"/>
          <rect class="cls-2" x="786.94" y="533.35" width="18.57" height="18.72"/>
          <rect class="cls-2" x="824.07" y="533.35" width="18.57" height="18.72"/>
          <rect class="cls-2" x="861.2" y="533.35" width="18.57" height="18.72"/>
          <rect class="cls-2" x="898.33" y="533.35" width="18.57" height="18.72"/>
          <rect class="cls-2" x="935.47" y="533.35" width="18.57" height="18.72"/>
          <rect class="cls-2" x="972.6" y="533.35" width="18.57" height="18.72"/>
          <rect class="cls-2" x="1009.73" y="533.35" width="18.57" height="18.72"/>
          <rect class="cls-2" x="1046.86" y="533.35" width="18.57" height="18.72"/>
        </g>
        <g>
          <rect class="cls-2" x="656.99" y="514.35" width="18.57" height="18.72"/>
          <rect class="cls-2" x="694.12" y="514.35" width="18.57" height="18.72"/>
          <rect class="cls-2" x="731.25" y="514.35" width="18.57" height="18.72"/>
          <rect class="cls-2" x="768.38" y="514.35" width="18.57" height="18.72"/>
          <rect class="cls-2" x="805.51" y="514.35" width="18.57" height="18.72"/>
          <rect class="cls-2" x="842.64" y="514.35" width="18.57" height="18.72"/>
          <rect class="cls-2" x="879.77" y="514.35" width="18.57" height="18.72"/>
          <rect class="cls-2" x="916.9" y="514.35" width="18.57" height="18.72"/>
          <rect class="cls-2" x="954.03" y="514.35" width="18.57" height="18.72"/>
          <rect class="cls-2" x="991.16" y="514.35" width="18.57" height="18.72"/>
          <rect class="cls-2" x="1028.29" y="514.35" width="18.57" height="18.72"/>
        </g>
        <g>
          <rect class="cls-2" x="656.99" y="552.35" width="18.57" height="18.72"/>
          <rect class="cls-2" x="694.12" y="552.35" width="18.57" height="18.72"/>
          <rect class="cls-2" x="731.25" y="552.35" width="18.57" height="18.72"/>
          <rect class="cls-2" x="768.38" y="552.35" width="18.57" height="18.72"/>
          <rect class="cls-2" x="805.51" y="552.35" width="18.57" height="18.72"/>
          <rect class="cls-2" x="842.64" y="552.35" width="18.57" height="18.72"/>
          <rect class="cls-2" x="879.77" y="552.35" width="18.57" height="18.72"/>
          <rect class="cls-2" x="916.9" y="552.35" width="18.57" height="18.72"/>
          <rect class="cls-2" x="954.03" y="552.35" width="18.57" height="18.72"/>
          <rect class="cls-2" x="991.16" y="552.35" width="18.57" height="18.72"/>
          <rect class="cls-2" x="1028.29" y="552.35" width="18.57" height="18.72"/>
        </g>
        <rect class="cls-2" x="1065.73" y="514.35" width="18.57" height="18.72"/>
        <rect class="cls-2" x="1065.73" y="552.35" width="18.57" height="18.72"/>
        <rect class="cls-2" x="1084.29" y="533.35" width="18.57" height="18.72"/>
        <rect class="cls-2" x="972.6" y="495.35" width="18.57" height="18.72"/>
        <rect class="cls-2" x="1009.73" y="495.35" width="18.57" height="18.72"/>
        <rect class="cls-2" x="1046.86" y="495.35" width="18.57" height="18.72"/>
        <rect class="cls-2" x="954.03" y="476.35" width="18.57" height="18.72"/>
        <rect class="cls-2" x="991.16" y="476.35" width="18.57" height="18.72"/>
        <rect class="cls-2" x="1028.29" y="476.35" width="18.57" height="18.72"/>
        <rect class="cls-2" x="1065.73" y="476.35" width="18.57" height="18.72"/>
        <rect class="cls-2" x="1084.29" y="495.35" width="18.57" height="18.72"/>
        <rect class="cls-2" x="972.6" y="457.35" width="18.57" height="18.72"/>
        <rect class="cls-2" x="1009.73" y="457.35" width="18.57" height="18.72"/>
        <rect class="cls-2" x="1046.86" y="457.35" width="18.57" height="18.72"/>
        <rect class="cls-2" x="954.03" y="438.35" width="18.57" height="18.72"/>
        <rect class="cls-2" x="991.16" y="438.35" width="18.57" height="18.72"/>
        <rect class="cls-2" x="1028.29" y="438.35" width="18.57" height="18.72"/>
        <rect class="cls-2" x="1065.73" y="438.35" width="18.57" height="18.72"/>
        <rect class="cls-2" x="1084.29" y="457.35" width="18.57" height="18.72"/>
        <rect class="cls-2" x="1065.73" y="301.35" width="18.57" height="18.72"/>
        <rect class="cls-2" x="1084.29" y="282.35" width="18.57" height="18.72"/>
        <rect class="cls-2" x="0.08" y="512.32" width="18.39" height="18.55" transform="translate(-512.32 530.87) rotate(-90)"/>
        <rect class="cls-2" x="0.08" y="475.53" width="18.39" height="18.55" transform="translate(-475.53 494.08) rotate(-90)"/>
        <rect class="cls-2" x="0.08" y="438.74" width="18.39" height="18.55" transform="translate(-438.74 457.29) rotate(-90)"/>
        <rect class="cls-2" x="0.08" y="401.96" width="18.39" height="18.55" transform="translate(-401.96 420.5) rotate(-90)"/>
        <rect class="cls-2" x="0.08" y="365.17" width="18.39" height="18.55" transform="translate(-365.17 383.71) rotate(-90)"/>
        <rect class="cls-2" x="0.08" y="328.38" width="18.39" height="18.55" transform="translate(-328.38 346.93) rotate(-90)"/>
        <rect class="cls-2" x="0.08" y="291.59" width="18.39" height="18.55" transform="translate(-291.59 310.14) rotate(-90)"/>
        <rect class="cls-2" x="0.08" y="254.8" width="18.39" height="18.55" transform="translate(-254.8 273.35) rotate(-90)"/>
      </g>
    </g>
  </g>
</svg>
